<svg version="1.2" xmlns="http://www.w3.org/2000/svg" viewBox="0 0 2100 738" width="2100" height="738">
	<title>Logo</title>
	<defs>
		<linearGradient id="g1" x1="1047.9" y1="-91.4" x2="1522.3" y2="326.4" gradientUnits="userSpaceOnUse">
			<stop offset="0" stop-color="#00ffff"/>
			<stop offset="1" stop-color="#1b1464"/>
		</linearGradient>
		<linearGradient id="g2" x1="1012.2" y1="88.8" x2="1285.4" y2="329.4" gradientUnits="userSpaceOnUse">
			<stop offset="0" stop-color="#00ffff"/>
			<stop offset="1" stop-color="#1b1464"/>
		</linearGradient>
	</defs>
	<style>
		.s0 { fill: #f15a24 } 
		.s1 { fill: url(#g1) } 
		.s2 { fill: url(#g2) } 
		.s3 { fill: #606060 } 
	</style>
	<g id="_Artboards_">
	</g>
	<g id="Layer 1">
		<g id="&lt;Group&gt;">
			<path id="&lt;Path&gt;" class="s0" d="m725.4 327c0 0 144.5-5.9 276.7 83.9 0 0-121.4-123.4-244.3-136.4z"/>
			<path id="&lt;Path&gt;" class="s0" d="m786.7 264c0 0 126.1 31.1 220.4 144 0 0-77.5-139.9-180.7-182.4z"/>
			<path id="&lt;Path&gt;" class="s0" d="m875.6 213.8c0 0 92.4 67.6 130.6 189.6 0 0-15.1-137.8-84.9-206.8z"/>
			<path id="&lt;Path&gt;" class="s0" d="m1400.4 327c0 0-144.5-5.9-276.7 83.9 0 0 121.4-123.4 244.3-136.4z"/>
			<path id="&lt;Path&gt;" class="s0" d="m1339 264c0 0-126 31.1-220.3 144 0 0 77.5-139.9 180.7-182.4z"/>
			<path id="&lt;Path&gt;" class="s0" d="m1250.2 213.8c0 0-92.5 67.6-130.6 189.6 0 0 15-137.8 84.8-206.8z"/>
			<path id="&lt;Path&gt;" class="s1" d="m980.7 221.9c0 0 83.2 47.7 80.8 145.2 0 0 77.9-227.6 270.7-270.9 0 0-136 2.2-251.2 164.7z"/>
			<path id="&lt;Path&gt;" class="s2" d="m1102.5 196.6c0 15.7-12.7 28.4-28.3 28.4-15.7 0-28.3-12.7-28.3-28.4 0-15.6 12.6-28.3 28.3-28.3 15.6 0 28.3 12.7 28.3 28.3z"/>
			<g id="&lt;Group&gt;">
				<path id="&lt;Compound Path&gt;" fill-rule="evenodd" class="s3" d="m443.8 543.8c0 48.3-29.3 77.6-72.3 77.6-43.8 0-69.3-33-69.3-75 0-44.1 28.2-77.1 71.7-77.1 45.2 0 69.9 33.9 69.9 74.5zm-35.2 1.1c0-26.4-12.7-49.2-35.6-49.2-22.5 0-35.6 21.5-35.6 50.1 0 28.8 13.5 49.2 35.8 49.2 22.5 0 35.4-21.4 35.4-50.1z"/>
				<path id="&lt;Compound Path&gt;" class="s3" d="m557.1 471.7v43c0 22.1 0.6 42 2.8 61.5h-0.6c-6.6-16.6-15.4-35-24.1-50.5l-30.6-54h-38.9v147.3h30.6v-44.4c0-24-0.4-44.8-1.3-64.2l0.6-0.2c7.2 17.2 16.9 36.2 25.6 52l31.5 56.8h35v-147.3z"/>
				<path id="&lt;Compound Path&gt;" class="s3" d="m650 591v-119.3h-33.5v147.3h92.1v-28z"/>
				<path id="&lt;Compound Path&gt;" class="s3" d="m728.2 471.7v147.3h33.5v-147.3z"/>
				<path id="&lt;Compound Path&gt;" class="s3" d="m881.9 471.7v43c0 22.1 0.7 42 2.9 61.5h-0.7c-6.6-16.6-15.3-35-24-50.5l-30.6-54h-39v147.3h30.6v-44.4c0-24-0.4-44.8-1.3-64.2l0.7-0.2c7.2 17.2 16.8 36.2 25.5 52l31.5 56.8h35v-147.3z"/>
				<path id="&lt;Compound Path&gt;" class="s3" d="m974.8 591.7v-35h54.2v-27.1h-54.2v-30.6h57.5v-27.3h-90.9v147.3h94v-27.3z"/>
				<path id="&lt;Compound Path&gt;" class="s3" d="m1177.7 593.7c-29.8 0-47.2-18.6-47.2-48.1 0-32.8 20.5-48.8 47-48.8 11.8 0 21.2 2.6 27.9 5.5l6.8-26.5c-5.9-3-19-6.5-36.3-6.5-44.6 0-80.4 28-80.4 78.2 0 42 26.2 73.7 77.2 73.7 17.9 0 31.7-3.3 37.8-6.3l-5.1-26c-6.5 2.6-17.7 4.8-27.7 4.8z"/>
				<path id="&lt;Compound Path&gt;" fill-rule="evenodd" class="s3" d="m1360.7 543.8c0 48.3-29.3 77.6-72.4 77.6-43.7 0-69.3-33-69.3-75 0-44.1 28.2-77.1 71.7-77.1 45.3 0 70 33.9 70 74.5zm-35.2 1.1c0-26.4-12.7-49.2-35.7-49.2-22.5 0-35.6 21.5-35.6 50.1 0 28.8 13.5 49.2 35.8 49.2 22.6 0 35.5-21.4 35.5-50.1z"/>
				<path id="&lt;Compound Path&gt;" class="s3" d="m1469.5 471.7v84.8c0 26-9.6 38.3-27.1 38.3-17 0-26.7-12.9-26.7-38.3v-84.8h-33.4v82.2c0 47 21.9 67.5 59 67.5 38.5 0 61.5-21.6 61.5-67.1v-82.6z"/>
				<path id="&lt;Compound Path&gt;" fill-rule="evenodd" class="s3" d="m1642.9 619h-34.1c-2.4-4.1-5.9-16.2-10.3-34.3-3.9-18.4-10.3-23.4-23.8-23.6h-10.1v57.9h-33v-145.4c10.7-1.7 26.7-3 44.4-3 21.8 0 37.2 3.3 47.6 11.6 8.8 7 13.6 17.2 13.6 30.8 0 18.8-13.3 31.7-26 36.3v0.6c10.3 4.2 15.9 14 19.7 27.6 4.5 16.6 9.1 35.8 12 41.5zm-38.7-103.2c0-13.5-9.2-20.3-24.5-20.5-8.1 0-12.7 0.6-15.1 1.1v40.6h13.1c16.7 0 26.5-8.3 26.5-21.2z"/>
				<path id="&lt;Compound Path&gt;" class="s3" d="m1718.5 531.6c-19-7.2-27.3-11.4-27.3-20.8 0-7.6 7-14.2 21.4-14.2 14.4 0 24.9 4.2 30.8 7l7.5-26.9c-8.8-3.9-21-7.4-37.6-7.4-34.8 0-55.8 19.2-55.8 44.4 0 21.4 16 34.9 40.5 43.5 17.7 6.3 24.7 11.5 24.7 20.7 0 9.6-8.1 16-23.4 16-14.2 0-28-4.6-37-9.2l-6.8 27.5c8.4 4.7 25 9 41.8 9 40.5 0 59.5-21 59.5-45.7 0-20.7-12.3-34.3-38.3-43.9z"/>
				<path id="&lt;Compound Path&gt;" class="s3" d="m1812.7 591.7v-35h54.3v-27.1h-54.3v-30.6h57.5v-27.3h-90.9v147.3h94v-27.3z"/>
			</g>
		</g>
	</g>
</svg>